# xmcd
#
# Track frame offsets: 
#        150
#        13680
#        30676
#        49637
#        71756
#        104832
#        126836
#        145692
#        173761
#        188124
#        208490
#        224631
#
# Disc length: 3404 seconds
#
# Revision: 0
# Processed by: cddbd v1.5.2PL0 Copyright (c) Steve Scherf et al.
# Submitted via: ExactAudioCopyFreeDBPlugin 1.0
#
DISCID=bd0d4a0c
DTITLE=!!! - Tsugi #62 - Thr!!!er Inspirations and Influences
DYEAR=2013
DGENRE=Electronic
TTITLE0=Kool and Together - I Know
TTITLE1=Romare - The Blues (It Began In Africa)
TTITLE2=dOP - I'm Just A Man
TTITLE3=Session Victim - Good Intentions (LP mix)
TTITLE4=Marcin Czubala and Hugo - Zoo Comunale
TTITLE5=Rachel Row - Follow The Step (Kink Beat mix)
TTITLE6=Last Magpie - Who Knows Where Love Goes
TTITLE7=Loni Gamble Band feat. Lisa Warrington - I Like The Way You Do
TTITLE7=It (Tom Noble edit)
TTITLE8=Thee Oh Sees - Enemy Destruct
TTITLE9=Smog - Justice Aversion
TTITLE10=Mickey Moonlight - Close To Everything
TTITLE11=Circle City Band - Magic
EXTD=
EXTT0=
EXTT1=
EXTT2=
EXTT3=
EXTT4=
EXTT5=
EXTT6=
EXTT7=
EXTT8=
EXTT9=
EXTT10=
EXTT11=
PLAYORDER=
